<svg width="67" height="67" viewBox="0 0 67 67" fill="none" xmlns="http://www.w3.org/2000/svg">
<g filter="url(#filter0_d_19_285)">
<path fill-rule="evenodd" clip-rule="evenodd" d="M20.5047 11.2141C29.1418 10.2568 37.8581 10.2568 46.4952 11.2141C51.2773 11.7501 55.1354 15.5161 55.6965 20.315C56.721 29.0751 56.721 37.9249 55.6965 46.685C55.1354 51.4839 51.2773 55.2499 46.4952 55.7859C37.8581 56.7434 29.1417 56.7434 20.5047 55.7859C15.7226 55.2499 11.8645 51.4839 11.3034 46.685C10.2789 37.9258 10.2789 29.077 11.3034 20.3177C11.5872 17.9863 12.65 15.8191 14.3196 14.1673C15.9892 12.5154 18.1676 11.4758 20.5019 11.2169M33.4999 19.5612C34.0552 19.5612 34.5878 19.7818 34.9804 20.1744C35.3731 20.5671 35.5937 21.0997 35.5937 21.655V31.4062H45.345C45.9003 31.4062 46.4328 31.6268 46.8255 32.0195C47.2181 32.4121 47.4387 32.9447 47.4387 33.5C47.4387 34.0553 47.2181 34.5878 46.8255 34.9805C46.4328 35.3732 45.9003 35.5937 45.345 35.5937H35.5937V45.345C35.5937 45.9003 35.3731 46.4329 34.9804 46.8255C34.5878 47.2182 34.0552 47.4388 33.4999 47.4388C32.9446 47.4388 32.4121 47.2182 32.0194 46.8255C31.6268 46.4329 31.4062 45.9003 31.4062 45.345V35.5937H21.6549C21.0996 35.5937 20.567 35.3732 20.1744 34.9805C19.7817 34.5878 19.5612 34.0553 19.5612 33.5C19.5612 32.9447 19.7817 32.4121 20.1744 32.0195C20.567 31.6268 21.0996 31.4062 21.6549 31.4062H31.4062V21.655C31.4062 21.0997 31.6268 20.5671 32.0194 20.1744C32.4121 19.7818 32.9446 19.5612 33.4999 19.5612Z" fill="#555454"/>
</g>
<defs>
<filter id="filter0_d_19_285" x="2.23503" y="4.19609" width="62.5298" height="62.6078" filterUnits="userSpaceOnUse" color-interpolation-filters="sRGB">
<feFlood flood-opacity="0" result="BackgroundImageFix"/>
<feColorMatrix in="SourceAlpha" type="matrix" values="0 0 0 0 0 0 0 0 0 0 0 0 0 0 0 0 0 0 127 0" result="hardAlpha"/>
<feOffset dy="2"/>
<feGaussianBlur stdDeviation="4.15"/>
<feComposite in2="hardAlpha" operator="out"/>
<feColorMatrix type="matrix" values="0 0 0 0 0 0 0 0 0 0 0 0 0 0 0 0 0 0 0.2 0"/>
<feBlend mode="normal" in2="BackgroundImageFix" result="effect1_dropShadow_19_285"/>
<feBlend mode="normal" in="SourceGraphic" in2="effect1_dropShadow_19_285" result="shape"/>
</filter>
</defs>
</svg>
