<svg width="45" height="45" viewBox="0 0 45 45" fill="none" xmlns="http://www.w3.org/2000/svg">
<path d="M27.6938 23.25C27.975 23.3812 28.2938 23.4375 28.5938 23.4375C29.2125 23.4375 29.7938 23.1938 30.2438 22.7625L34.3313 18.75H36.0938C38.9438 18.75 41.25 16.4438 41.25 13.5938V8.90625C41.25 6.05625 38.9438 3.75 36.0938 3.75H27.6563C24.8063 3.75 22.5 6.05625 22.5 8.90625V13.5938C22.5 15.9563 24.0938 17.9437 26.25 18.5625V21.0938C26.25 22.0312 26.8313 22.875 27.6938 23.25ZM25.3125 8.90625C25.3125 7.6125 26.3625 6.5625 27.6563 6.5625H36.0938C37.3875 6.5625 38.4375 7.6125 38.4375 8.90625V13.5938C38.4375 14.8875 37.3875 15.9375 36.0938 15.9375H33.1688L29.0625 19.9688V15.9375H27.6563C26.3625 15.9375 25.3125 14.8875 25.3125 13.5938V8.90625ZM15 25.3125C11.3813 25.3125 8.43751 22.3687 8.43751 18.75C8.43751 15.1313 11.3813 12.1875 15 12.1875C18.6188 12.1875 21.5625 15.1313 21.5625 18.75C21.5625 22.3687 18.6188 25.3125 15 25.3125ZM15 15C12.9375 15 11.25 16.6875 11.25 18.75C11.25 20.8125 12.9375 22.5 15 22.5C17.0625 22.5 18.75 20.8125 18.75 18.75C18.75 16.6875 17.0625 15 15 15ZM15 41.25C11.1375 41.25 8.17501 40.2 6.18751 38.1188C3.68251 35.4862 3.74439 32.1675 3.75001 31.8244V31.8C3.75001 29.7937 5.43751 28.125 7.50001 28.125H22.5C24.5625 28.125 26.25 29.8125 26.25 31.875L26.2519 31.8863C26.2575 32.1244 26.3363 35.4675 23.8144 38.1188C21.825 40.2 18.8625 41.25 15 41.25ZM7.50001 30.9375C6.97501 30.9375 6.56251 31.35 6.56251 31.875V31.8844C6.56251 32.0625 6.53064 34.4119 8.25001 36.2062C9.67501 37.6875 11.9438 38.4375 15 38.4375C18.0563 38.4375 20.3438 37.6688 21.7688 36.1688C23.4806 34.3838 23.4413 32.0588 23.4375 31.935V31.9313C23.4375 31.35 23.0063 30.9187 22.5 30.9187H7.50001V30.9375Z" fill="black"/>
</svg>
