<svg width="45" height="45" viewBox="0 0 45 45" fill="none" xmlns="http://www.w3.org/2000/svg">
<path d="M33.6375 31.3989C36.5915 28.4433 38.251 24.4356 38.251 20.2569C38.251 16.0781 36.5915 12.0704 33.6375 9.11486C32.175 7.65216 30.4386 6.49188 28.5276 5.70027C26.6167 4.90866 24.5685 4.50122 22.5 4.50122C20.4315 4.50122 18.3833 4.90866 16.4724 5.70027C14.5614 6.49188 12.825 7.65216 11.3625 9.11486C8.40846 12.0704 6.74902 16.0781 6.74902 20.2569C6.74902 24.4356 8.40846 28.4433 11.3625 31.3989L14.7848 34.7716L19.3815 39.2379L19.6807 39.5034C21.4245 40.9164 23.9783 40.8264 25.6208 39.2379L31.0995 33.9054L33.6375 31.3989ZM22.5 27.0001C20.7098 27.0001 18.9929 26.2889 17.727 25.0231C16.4612 23.7572 15.75 22.0403 15.75 20.2501C15.75 18.4599 16.4612 16.743 17.727 15.4771C18.9929 14.2113 20.7098 13.5001 22.5 13.5001C24.2902 13.5001 26.0071 14.2113 27.273 15.4771C28.5388 16.743 29.25 18.4599 29.25 20.2501C29.25 22.0403 28.5388 23.7572 27.273 25.0231C26.0071 26.2889 24.2902 27.0001 22.5 27.0001Z" fill="black"/>
</svg>
