<svg width="25" height="25" viewBox="0 0 25 25" fill="none" xmlns="http://www.w3.org/2000/svg">
<path d="M6.25002 22.9167C5.6771 22.9167 5.18683 22.7129 4.77919 22.3053C4.37155 21.8976 4.16738 21.407 4.16669 20.8334V10.4167C4.16669 9.84383 4.37085 9.35355 4.77919 8.94592C5.18752 8.53828 5.6778 8.33411 6.25002 8.33342H7.29169V6.25008C7.29169 4.80911 7.79967 3.58098 8.81565 2.56571C9.83162 1.55043 11.0597 1.04244 12.5 1.04175C13.9403 1.04105 15.1688 1.54904 16.1854 2.56571C17.2021 3.58237 17.7097 4.8105 17.7084 6.25008V8.33342H18.75C19.3229 8.33342 19.8136 8.53758 20.2219 8.94592C20.6302 9.35425 20.834 9.84453 20.8334 10.4167V20.8334C20.8334 21.4063 20.6295 21.897 20.2219 22.3053C19.8143 22.7136 19.3236 22.9174 18.75 22.9167H6.25002ZM6.25002 20.8334H18.75V10.4167H6.25002V20.8334ZM12.5 17.7084C13.0729 17.7084 13.5636 17.5046 13.9719 17.097C14.3802 16.6893 14.584 16.1987 14.5834 15.6251C14.5827 15.0515 14.3788 14.5612 13.9719 14.1542C13.565 13.7473 13.0743 13.5431 12.5 13.5417C11.9257 13.5404 11.4354 13.7445 11.0292 14.1542C10.6229 14.564 10.4188 15.0542 10.4167 15.6251C10.4146 16.1959 10.6188 16.6865 11.0292 17.097C11.4396 17.5074 11.9299 17.7112 12.5 17.7084ZM9.37502 8.33342H15.625V6.25008C15.625 5.38203 15.3212 4.64418 14.7136 4.03654C14.1059 3.4289 13.3681 3.12508 12.5 3.12508C11.632 3.12508 10.8941 3.4289 10.2865 4.03654C9.67884 4.64418 9.37502 5.38203 9.37502 6.25008V8.33342Z" fill="black"/>
</svg>
