<svg width="25" height="25" viewBox="0 0 25 25" fill="none" xmlns="http://www.w3.org/2000/svg">
<path d="M4.16669 19.7916V17.7083H6.25002V10.4166C6.25002 8.97562 6.68405 7.69541 7.5521 6.57596C8.42016 5.45652 9.54863 4.72284 10.9375 4.37492V3.64575C10.9375 3.21173 11.0896 2.84298 11.3938 2.5395C11.6979 2.23603 12.0667 2.08395 12.5 2.08325C12.9334 2.08256 13.3025 2.23464 13.6073 2.5395C13.9122 2.84437 14.0639 3.21312 14.0625 3.64575V4.37492C15.4514 4.72214 16.5799 5.45582 17.4479 6.57596C18.316 7.6961 18.75 8.97631 18.75 10.4166V17.7083H20.8334V19.7916H4.16669ZM12.5 22.9166C11.9271 22.9166 11.4368 22.7128 11.0292 22.3051C10.6215 21.8975 10.4174 21.4069 10.4167 20.8333H14.5834C14.5834 21.4062 14.3795 21.8968 13.9719 22.3051C13.5643 22.7135 13.0736 22.9173 12.5 22.9166ZM8.33335 17.7083H16.6667V10.4166C16.6667 9.27075 16.2587 8.28985 15.4427 7.47388C14.6268 6.65791 13.6459 6.24992 12.5 6.24992C11.3542 6.24992 10.3733 6.65791 9.55731 7.47388C8.74134 8.28985 8.33335 9.27075 8.33335 10.4166V17.7083Z" fill="black"/>
</svg>
