<svg width="45" height="45" viewBox="0 0 45 45" fill="none" xmlns="http://www.w3.org/2000/svg">
<path d="M15 9.375H11.25C10.2554 9.375 9.30161 9.77009 8.59835 10.4733C7.89509 11.1766 7.5 12.1304 7.5 13.125V35.625C7.5 36.6196 7.89509 37.5734 8.59835 38.2766C9.30161 38.9799 10.2554 39.375 11.25 39.375H21.9319M33.75 26.25V33.75H41.25M33.75 20.625V13.125C33.75 12.1304 33.3549 11.1766 32.6516 10.4733C31.9484 9.77009 30.9946 9.375 30 9.375H26.25" stroke="black" stroke-width="2" stroke-linecap="round" stroke-linejoin="round"/>
<path d="M15 20.625H22.5M15 28.125H20.625M15 9.375C15 8.38044 15.3951 7.42661 16.0984 6.72335C16.8016 6.02009 17.7554 5.625 18.75 5.625H22.5C23.4946 5.625 24.4484 6.02009 25.1516 6.72335C25.8549 7.42661 26.25 8.38044 26.25 9.375C26.25 10.3696 25.8549 11.3234 25.1516 12.0267C24.4484 12.7299 23.4946 13.125 22.5 13.125H18.75C17.7554 13.125 16.8016 12.7299 16.0984 12.0267C15.3951 11.3234 15 10.3696 15 9.375ZM26.25 33.75C26.25 35.7391 27.0402 37.6468 28.4467 39.0533C29.8532 40.4598 31.7609 41.25 33.75 41.25C35.7391 41.25 37.6468 40.4598 39.0533 39.0533C40.4598 37.6468 41.25 35.7391 41.25 33.75C41.25 31.7609 40.4598 29.8532 39.0533 28.4467C37.6468 27.0402 35.7391 26.25 33.75 26.25C31.7609 26.25 29.8532 27.0402 28.4467 28.4467C27.0402 29.8532 26.25 31.7609 26.25 33.75Z" stroke="black" stroke-width="2" stroke-linecap="round" stroke-linejoin="round"/>
</svg>
