<svg width="85" height="84" viewBox="0 0 85 84" fill="none" xmlns="http://www.w3.org/2000/svg">
<path d="M59.9754 63.3152L69.919 83.121L84.081 64.879L62.4284 60.1556L59.9754 63.3152ZM0.333333 11C0.333333 16.891 5.10896 21.6667 11 21.6667C16.891 21.6667 21.6667 16.891 21.6667 11C21.6667 5.10896 16.891 0.333333 11 0.333333C5.10896 0.333333 0.333333 5.10896 0.333333 11ZM64.031 61.4001C54.2888 53.5725 43.0885 44.0524 33.4919 34.7957C23.8294 25.4754 16.0101 16.6241 12.793 10.114L9.20698 11.886C12.7668 19.0899 21.0672 28.3687 30.7149 37.6747C40.4286 47.0443 51.729 56.6469 61.5256 64.5183L64.031 61.4001Z" fill="#FF3838"/>
</svg>
