<svg width="129" height="177" viewBox="0 0 129 177" fill="none" xmlns="http://www.w3.org/2000/svg">
<path d="M107.333 166C107.333 171.891 112.109 176.667 118 176.667C123.891 176.667 128.667 171.891 128.667 166C128.667 160.109 123.891 155.333 118 155.333C112.109 155.333 107.333 160.109 107.333 166ZM79.1289 51.4029L77.1356 51.5662L79.1289 51.4029ZM0.333333 18.6016C0.333333 24.4927 5.10896 29.2683 11 29.2683C16.891 29.2683 21.6667 24.4927 21.6667 18.6016C21.6667 12.7106 16.891 7.93495 11 7.93495C5.10896 7.93495 0.333333 12.7106 0.333333 18.6016ZM12.3251 20.0997C13.0233 19.4821 13.7482 18.8634 14.4973 18.2474L11.9567 15.1578C11.1706 15.8043 10.4091 16.4541 9.67493 17.1036L12.3251 20.0997ZM19.0403 14.7721C20.5745 13.682 22.172 12.628 23.817 11.6337L21.7477 8.2105C20.0136 9.25877 18.3335 10.3674 16.7234 11.5115L19.0403 14.7721ZM28.8078 8.88816C30.5154 8.04216 32.2503 7.27958 33.9971 6.62207L32.5881 2.87847C30.705 3.58725 28.8477 4.40439 27.032 5.30392L28.8078 8.88816ZM39.3572 4.96258C41.1956 4.52175 43.0233 4.22199 44.8244 4.08498L44.5209 0.0965029C42.4852 0.251378 40.4463 0.588028 38.4244 1.07285L39.3572 4.96258ZM50.2699 4.20081C52.0549 4.42759 53.796 4.85125 55.4792 5.4965L56.911 1.76154C54.9107 0.994705 52.8563 0.497263 50.774 0.232707L50.2699 4.20081ZM60.1944 8.01709C61.5903 8.99994 62.9425 10.1886 64.2366 11.6096L67.194 8.91635C65.7123 7.28929 64.1422 5.90473 62.4974 4.74652L60.1944 8.01709ZM67.5638 16.0072C68.4962 17.4783 69.3844 19.1112 70.2198 20.9187L73.8507 19.2405C72.9474 17.286 71.9762 15.4971 70.9425 13.866L67.5638 16.0072ZM72.3234 26.1819C72.9079 27.8767 73.4536 29.6881 73.9564 31.6219L77.8277 30.6154C77.3007 28.5884 76.7255 26.6773 76.1048 24.8777L72.3234 26.1819ZM75.2194 37.2125C75.5708 39.0163 75.8894 40.9082 76.173 42.8917L80.1327 42.3255C79.8402 40.2795 79.5106 38.3212 79.1457 36.4477L75.2194 37.2125ZM76.8675 48.6243C76.9643 49.5861 77.0537 50.5666 77.1356 51.5662L81.1222 51.2397C81.0384 50.216 80.9467 49.2107 80.8473 48.2236L76.8675 48.6243ZM77.1356 51.5662C77.221 52.6091 77.3102 53.6445 77.4031 54.6725L81.3868 54.3125C81.2949 53.2957 81.2067 52.2715 81.1222 51.2397L77.1356 51.5662ZM78.0128 60.8317C78.2371 62.9136 78.4767 64.9632 78.7307 66.9808L82.6994 66.4812C82.4484 64.4874 82.2116 62.4614 81.9898 60.4032L78.0128 60.8317ZM79.5611 73.1175C79.8619 75.1938 80.1779 77.2341 80.5082 79.2386L84.455 78.5883C84.129 76.6094 83.8168 74.5948 83.5197 72.544L79.5611 73.1175ZM81.5769 85.3401C81.9606 87.4062 82.3593 89.4316 82.7718 91.4168L86.6882 90.603C86.2815 88.6457 85.8882 86.6481 85.5097 84.6097L81.5769 85.3401ZM84.0979 97.4622C84.5737 99.5201 85.0639 101.531 85.5671 103.496L89.442 102.503C88.9467 100.569 88.4639 98.5887 87.9952 96.5613L84.0979 97.4622ZM87.183 109.496C87.7589 111.532 88.3481 113.513 88.9485 115.44L92.7674 114.25C92.1776 112.357 91.5984 110.409 91.032 108.407L87.183 109.496ZM90.8786 121.344C91.57 123.361 92.2726 125.312 92.9834 127.197L96.7262 125.786C96.0298 123.939 95.3409 122.026 94.6624 120.047L90.8786 121.344ZM95.2719 132.98C96.0948 134.963 96.9243 136.861 97.7563 138.677L101.393 137.011C100.581 135.239 99.7709 133.385 98.9662 131.447L95.2719 132.98ZM100.47 144.302C101.461 146.252 102.449 148.086 103.426 149.806L106.904 147.83C105.958 146.165 104.999 144.386 104.036 142.49L100.47 144.302ZM106.664 155.163C107.899 157.078 109.104 158.805 110.265 160.347L113.461 157.941C112.362 156.482 111.212 154.835 110.026 152.996L106.664 155.163ZM114.342 165.231C115.159 166.097 115.941 166.855 116.682 167.505L119.318 164.495C118.686 163.942 117.995 163.275 117.253 162.487L114.342 165.231Z" fill="#FF3838"/>
</svg>
